# This file uses centimeters as units for non-parametric coordinates.

mtllib cloudv3.mtl
g default
v 0.299095 -0.071876 0.418034
v 0.334400 -0.043898 -0.580951
v 0.807602 -0.924816 -0.588899
v 0.772297 -0.952794 0.410086
v 1.508098 -0.431412 -0.334857
v 0.977435 -0.491495 0.696297
v 1.146105 0.217799 -0.574925
v 1.205390 0.131259 0.192541
v -1.220538 0.452908 0.157431
v -1.274612 0.298505 -0.527110
v -1.272533 0.095557 -0.551823
v -1.318374 0.128611 0.252106
v 0.576196 0.095519 -0.485133
v 0.551679 0.076089 0.208634
v 0.299414 0.555939 -0.490253
v 0.494588 0.484227 0.296244
v -0.067478 0.275045 0.136066
v -0.428873 0.329723 -0.502747
v -0.231119 -0.561369 -0.588284
v -0.116247 -0.450042 0.409454
v 0.921816 -0.561369 -0.547539
v 0.858408 -0.687203 0.186997
v 0.868135 0.409266 -0.551940
v 0.677651 0.314856 0.315388
v -1.509207 0.344503 0.366216
v -1.473902 0.372481 -0.632769
v -1.397717 -0.049453 -0.631159
v -1.099213 -0.307844 0.362722
v -0.609969 -0.319600 -0.321437
v -0.509296 -0.196430 0.386403
v -0.478235 0.369541 -0.492492
v -0.509830 0.344503 0.401534
vt 0.375000 0.000000
vt 0.625000 0.000000
vt 0.625000 0.250000
vt 0.375000 0.250000
vt 0.625000 0.500000
vt 0.375000 0.500000
vt 0.625000 0.750000
vt 0.375000 0.750000
vt 0.625000 1.000000
vt 0.375000 1.000000
vt 0.875000 0.000000
vt 0.875000 0.250000
vt 0.125000 0.000000
vt 0.125000 0.250000
vt 0.375000 0.000000
vt 0.625000 0.000000
vt 0.625000 0.250000
vt 0.375000 0.250000
vt 0.625000 0.500000
vt 0.375000 0.500000
vt 0.625000 0.750000
vt 0.375000 0.750000
vt 0.625000 1.000000
vt 0.375000 1.000000
vt 0.875000 0.000000
vt 0.875000 0.250000
vt 0.125000 0.000000
vt 0.125000 0.250000
vt 0.375000 0.000000
vt 0.625000 0.000000
vt 0.625000 0.250000
vt 0.375000 0.250000
vt 0.625000 0.500000
vt 0.375000 0.500000
vt 0.625000 0.750000
vt 0.375000 0.750000
vt 0.625000 1.000000
vt 0.375000 1.000000
vt 0.875000 0.000000
vt 0.875000 0.250000
vt 0.125000 0.000000
vt 0.125000 0.250000
vt 0.375000 0.000000
vt 0.625000 0.000000
vt 0.625000 0.250000
vt 0.375000 0.250000
vt 0.625000 0.500000
vt 0.375000 0.500000
vt 0.625000 0.750000
vt 0.375000 0.750000
vt 0.625000 1.000000
vt 0.375000 1.000000
vt 0.875000 0.000000
vt 0.875000 0.250000
vt 0.125000 0.000000
vt 0.125000 0.250000
vn -0.880255 -0.472429 -0.044303
vn -0.880255 -0.472429 -0.044303
vn -0.880255 -0.472429 -0.044303
vn -0.880255 -0.472429 -0.044303
vn 0.671171 -0.724769 0.155693
vn 0.671171 -0.724769 0.155693
vn 0.671171 -0.724769 0.155693
vn 0.671171 -0.724769 0.155693
vn 0.930667 0.252791 0.264491
vn 0.930667 0.252791 0.264491
vn 0.930667 0.252791 0.264491
vn 0.930667 0.252791 0.264491
vn -0.252698 0.965292 0.065999
vn -0.252698 0.965292 0.065999
vn -0.252698 0.965292 0.065999
vn -0.252698 0.965292 0.065999
vn 0.190899 -0.044600 -0.980596
vn 0.190899 -0.044600 -0.980596
vn 0.190899 -0.044600 -0.980596
vn 0.190899 -0.044600 -0.980596
vn -0.214998 0.273997 0.937391
vn -0.214998 0.273997 0.937391
vn -0.214998 0.273997 0.937391
vn -0.214998 0.273997 0.937391
vn -0.984159 0.176493 -0.016799
vn -0.984159 0.176493 -0.016799
vn -0.984159 0.176493 -0.016799
vn -0.984159 0.176493 -0.016799
vn -0.014199 -0.999864 0.008400
vn -0.014199 -0.999864 0.008400
vn -0.014199 -0.999864 0.008400
vn -0.014199 -0.999864 0.008400
vn 0.927367 0.364487 -0.084497
vn 0.927367 0.364487 -0.084497
vn 0.927367 0.364487 -0.084497
vn 0.927367 0.364487 -0.084497
vn -0.085200 0.995499 -0.041500
vn -0.085200 0.995499 -0.041500
vn -0.085200 0.995499 -0.041500
vn -0.085200 0.995499 -0.041500
vn 0.027100 0.040900 -0.998796
vn 0.027100 0.040900 -0.998796
vn 0.027100 0.040900 -0.998796
vn 0.027100 0.040900 -0.998796
vn -0.026500 0.011100 0.999587
vn -0.026500 0.011100 0.999587
vn -0.026500 0.011100 0.999587
vn -0.026500 0.011100 0.999587
vn -0.958153 -0.055697 0.280786
vn -0.958153 -0.055697 0.280786
vn -0.958153 -0.055697 0.280786
vn -0.958153 -0.055697 0.280786
vn -0.111198 -0.993786 -0.005000
vn -0.111198 -0.993786 -0.005000
vn -0.111198 -0.993786 -0.005000
vn -0.111198 -0.993786 -0.005000
vn 0.979784 0.105798 0.169797
vn 0.979784 0.105798 0.169797
vn 0.979784 0.105798 0.169797
vn 0.979784 0.105798 0.169797
vn -0.064700 0.992302 0.105600
vn -0.064700 0.992302 0.105600
vn -0.064700 0.992302 0.105600
vn -0.064700 0.992302 0.105600
vn -0.004800 0.042899 -0.999068
vn -0.004800 0.042899 -0.999068
vn -0.004800 0.042899 -0.999068
vn -0.004800 0.042899 -0.999068
vn 0.034899 0.086296 0.995658
vn 0.034899 0.086296 0.995658
vn 0.034899 0.086296 0.995658
vn 0.034899 0.086296 0.995658
vn -0.909323 -0.411610 0.060902
vn -0.909323 -0.411610 0.060902
vn -0.909323 -0.411610 0.060902
vn -0.909323 -0.411610 0.060902
vn -0.101104 -0.993343 -0.055202
vn -0.101104 -0.993343 -0.055202
vn -0.101104 -0.993343 -0.055202
vn -0.101104 -0.993343 -0.055202
vn 0.993220 -0.110502 -0.036101
vn 0.993220 -0.110502 -0.036101
vn 0.993220 -0.110502 -0.036101
vn 0.993220 -0.110502 -0.036101
vn -0.001000 0.999607 0.028000
vn -0.001000 0.999607 0.028000
vn -0.001000 0.999607 0.028000
vn -0.001000 0.999607 0.028000
vn 0.218298 -0.160499 -0.962593
vn 0.218298 -0.160499 -0.962593
vn 0.218298 -0.160499 -0.962593
vn 0.218298 -0.160499 -0.962593
vn -0.035100 -0.027700 0.999000
vn -0.035100 -0.027700 0.999000
vn -0.035100 -0.027700 0.999000
vn -0.035100 -0.027700 0.999000
s off
g Mesh
usemtl lambert2SG
f 1/1/1 2/2/2 3/3/3 4/4/4
f 4/4/5 3/3/6 5/5/7 6/6/8
f 6/6/9 5/5/10 7/7/11 8/8/12
f 8/8/13 7/7/14 2/9/15 1/10/16
f 2/2/17 7/11/18 5/12/19 3/3/20
f 8/13/21 1/1/22 4/4/23 6/14/24
f 9/15/25 10/16/26 11/17/27 12/18/28
f 12/18/29 11/17/30 13/19/31 14/20/32
f 14/20/33 13/19/34 15/21/35 16/22/36
f 16/22/37 15/21/38 10/23/39 9/24/40
f 10/16/41 15/25/42 13/26/43 11/17/44
f 16/27/45 9/15/46 12/18/47 14/28/48
f 17/29/49 18/30/50 19/31/51 20/32/52
f 20/32/53 19/31/54 21/33/55 22/34/56
f 22/34/57 21/33/58 23/35/59 24/36/60
f 24/36/61 23/35/62 18/37/63 17/38/64
f 18/30/65 23/39/66 21/40/67 19/31/68
f 24/41/69 17/29/70 20/32/71 22/42/72
f 25/43/73 26/44/74 27/45/75 28/46/76
f 28/46/77 27/45/78 29/47/79 30/48/80
f 30/48/81 29/47/82 31/49/83 32/50/84
f 32/50/85 31/49/86 26/51/87 25/52/88
f 26/44/89 31/53/90 29/54/91 27/45/92
f 32/55/93 25/43/94 28/46/95 30/56/96
